<svg xmlns="http://www.w3.org/2000/svg" viewBox="0 0 52 52" width="52" height="52">
  <defs>
    <linearGradient id="primaryGradient" x1="0%" y1="0%" x2="100%" y2="100%">
      <stop offset="0%" style="stop-color:#040e40;stop-opacity:1" />
      <stop offset="50%" style="stop-color:#1c1891;stop-opacity:1" />
      <stop offset="100%" style="stop-color:#040e40;stop-opacity:1" />
    </linearGradient>
    <linearGradient id="accentGradient" x1="0%" y1="0%" x2="100%" y2="100%">
      <stop offset="0%" style="stop-color:#ff0000;stop-opacity:1" />
      <stop offset="100%" style="stop-color:#dc2626;stop-opacity:1" />
    </linearGradient>
    <filter id="glow" x="-50%" y="-50%" width="200%" height="200%">
      <feGaussianBlur stdDeviation="2" result="coloredBlur"/>
      <feMerge> 
        <feMergeNode in="coloredBlur"/>
        <feMergeNode in="SourceGraphic"/>
      </feMerge>
    </filter>
    <filter id="shadow" x="-20%" y="-20%" width="140%" height="140%">
      <feDropShadow dx="0" dy="2" stdDeviation="3" flood-color="#000000" flood-opacity="0.25"/>
    </filter>
  </defs>
  
  <!-- Modern circular background with gradient -->
  <circle cx="26" cy="26" r="24" fill="url(#primaryGradient)" filter="url(#shadow)"/>
  
  <!-- Inner highlight circle -->
  <circle cx="26" cy="26" r="22" fill="none" stroke="rgba(255,255,255,0.15)" stroke-width="1.5"/>
  
  <!-- Central tech/gear icon -->
  <g transform="translate(26,26)">
    <!-- Main gear/cog shape -->
    <path d="M-10,-3 L-10,-10 L-3,-10 L-3,-13 L3,-13 L3,-10 L10,-10 L10,-3 L13,-3 L13,3 L10,3 L10,10 L3,10 L3,13 L-3,13 L-3,10 L-10,10 L-10,3 L-13,3 L-13,-3 Z" 
          fill="rgba(255,255,255,0.95)" 
          stroke="rgba(255,255,255,0.4)" 
          stroke-width="0.8"/>
    
    <!-- Inner circle (tech element) -->
    <circle cx="0" cy="0" r="6" fill="url(#accentGradient)" filter="url(#glow)"/>
    
    <!-- Tech details - circuit pattern -->
    <rect x="-1.5" y="-7" width="3" height="1.5" fill="rgba(255,255,255,0.7)" rx="0.75"/>
    <rect x="-1.5" y="5.5" width="3" height="1.5" fill="rgba(255,255,255,0.7)" rx="0.75"/>
    <rect x="-7" y="-1.5" width="1.5" height="3" fill="rgba(255,255,255,0.7)" rx="0.75"/>
    <rect x="5.5" y="-1.5" width="1.5" height="3" fill="rgba(255,255,255,0.7)" rx="0.75"/>
    
    <!-- Additional tech details for larger size -->
    <rect x="-5" y="-9" width="1" height="2" fill="rgba(255,255,255,0.5)" rx="0.5"/>
    <rect x="4" y="-9" width="1" height="2" fill="rgba(255,255,255,0.5)" rx="0.5"/>
    <rect x="-5" y="7" width="1" height="2" fill="rgba(255,255,255,0.5)" rx="0.5"/>
    <rect x="4" y="7" width="1" height="2" fill="rgba(255,255,255,0.5)" rx="0.5"/>
    
    <rect x="-9" y="-5" width="2" height="1" fill="rgba(255,255,255,0.5)" rx="0.5"/>
    <rect x="7" y="-5" width="2" height="1" fill="rgba(255,255,255,0.5)" rx="0.5"/>
    <rect x="-9" y="4" width="2" height="1" fill="rgba(255,255,255,0.5)" rx="0.5"/>
    <rect x="7" y="4" width="2" height="1" fill="rgba(255,255,255,0.5)" rx="0.5"/>
    
    <!-- Central dot -->
    <circle cx="0" cy="0" r="1.8" fill="rgba(255,255,255,0.95)"/>
  </g>
  
  <!-- Subtle outer glow -->
  <circle cx="26" cy="26" r="25" fill="none" stroke="url(#accentGradient)" stroke-width="0.8" opacity="0.4"/>
</svg>
