<svg xmlns="http://www.w3.org/2000/svg" xmlns:xlink="http://www.w3.org/1999/xlink" width="1024" zoomAndPan="magnify" viewBox="0 0 768 431.249996" height="575" preserveAspectRatio="xMidYMid meet" version="1.0"><defs><g/><clipPath id="d0115afb7f"><path d="M 119.699219 194.21875 L 186.332031 194.21875 L 186.332031 260.851562 L 119.699219 260.851562 Z M 119.699219 194.21875 " clip-rule="nonzero"/></clipPath><clipPath id="6b38868c1f"><rect x="0" width="138" y="0" height="154"/></clipPath><clipPath id="afe2f18504"><rect x="0" width="594" y="0" height="157"/></clipPath><clipPath id="e74bec858c"><rect x="0" width="692" y="0" height="58"/></clipPath></defs><g clip-path="url(#d0115afb7f)"><path fill="#ff0000" d="M 179.40625 216.589844 C 179.542969 217.132812 179.527344 217.6875 179.386719 218.207031 C 179.246094 218.722656 178.980469 219.203125 178.59375 219.589844 C 178.410156 219.769531 178.207031 219.933594 177.980469 220.070312 L 168.863281 226.078125 L 166.917969 227.261719 C 166.289062 227.640625 166.183594 228.511719 166.703125 229.03125 C 167.878906 230.207031 169.019531 231.421875 170.121094 232.671875 L 182.746094 246.992188 C 183.195312 247.441406 183.199219 248.171875 182.746094 248.625 L 174.105469 257.265625 C 173.65625 257.714844 172.921875 257.714844 172.472656 257.265625 L 158.152344 244.640625 C 156.902344 243.539062 155.6875 242.398438 154.511719 241.222656 C 153.992188 240.703125 153.125 240.804688 152.742188 241.433594 L 151.558594 243.382812 L 145.550781 252.496094 C 145.414062 252.722656 145.253906 252.929688 145.074219 253.109375 C 144.300781 253.878906 143.15625 254.191406 142.074219 253.925781 C 140.992188 253.65625 140.152344 252.859375 139.820312 251.785156 L 123.671875 202.152344 C 123.324219 201.027344 123.625 199.808594 124.457031 198.976562 C 125.0625 198.371094 125.871094 198.046875 126.695312 198.046875 C 127.007812 198.046875 127.324219 198.09375 127.632812 198.1875 L 177.269531 214.335938 C 178.339844 214.667969 179.140625 215.511719 179.40625 216.589844 Z M 178.398438 210.679688 L 128.761719 194.53125 C 126.277344 193.761719 123.589844 194.429688 121.75 196.269531 C 119.910156 198.109375 119.246094 200.792969 120.011719 203.28125 L 136.160156 252.917969 C 136.890625 255.28125 138.757812 257.050781 141.152344 257.644531 C 141.710938 257.78125 142.277344 257.847656 142.839844 257.847656 C 144.675781 257.847656 146.46875 257.128906 147.78125 255.820312 C 148.175781 255.421875 148.527344 254.972656 148.824219 254.488281 L 154.34375 246.167969 L 169.917969 259.824219 C 171.773438 261.683594 174.804688 261.683594 176.664062 259.824219 L 185.304688 251.179688 C 187.164062 249.320312 187.164062 246.292969 185.304688 244.433594 L 171.652344 228.863281 L 179.96875 223.34375 C 180.457031 223.046875 180.902344 222.695312 181.300781 222.296875 C 183.015625 220.585938 183.714844 218.042969 183.121094 215.671875 C 182.53125 213.273438 180.761719 211.410156 178.398438 210.679688 " fill-opacity="1" fill-rule="nonzero"/></g><path fill="#040e40" d="M 179.40625 216.589844 C 179.542969 217.132812 179.527344 217.6875 179.386719 218.207031 C 179.246094 218.722656 178.980469 219.203125 178.59375 219.589844 C 178.410156 219.769531 178.207031 219.933594 177.980469 220.070312 L 168.863281 226.078125 L 166.917969 227.261719 C 166.289062 227.644531 166.183594 228.511719 166.703125 229.03125 L 168.46875 230.796875 L 182.746094 246.992188 C 183.195312 247.441406 183.199219 248.171875 182.746094 248.625 L 174.105469 257.265625 C 173.65625 257.714844 172.921875 257.714844 172.472656 257.265625 L 156.277344 242.988281 L 154.511719 241.222656 C 153.992188 240.703125 153.125 240.804688 152.742188 241.433594 L 151.558594 243.382812 L 145.550781 252.496094 C 145.414062 252.722656 145.253906 252.929688 145.074219 253.109375 C 144.300781 253.878906 143.15625 254.191406 142.074219 253.925781 C 140.992188 253.65625 140.152344 252.859375 139.820312 251.785156 L 123.671875 202.152344 C 123.324219 201.027344 123.625 199.808594 124.457031 198.976562 C 125.0625 198.371094 125.871094 198.046875 126.695312 198.046875 C 127.007812 198.046875 127.324219 198.09375 127.632812 198.1875 L 177.269531 214.335938 C 178.339844 214.667969 179.140625 215.511719 179.40625 216.589844 " fill-opacity="1" fill-rule="nonzero"/><g transform="matrix(1, 0, 0, 1, 6, 113)"><g clip-path="url(#6b38868c1f)"><g fill="#ff0000" fill-opacity="1"><g transform="translate(0.890135, 121.493897)"><g><path d="M 5.15625 0 L 5.15625 -18.171875 L 15.71875 -18.171875 L 15.46875 -76.8125 L 5.15625 -76.8125 L 5.15625 -95 L 48.984375 -95 L 48.984375 -76.8125 L 38.53125 -76.8125 L 38.28125 -18.171875 L 48.984375 -18.171875 L 48.984375 0 Z M 5.15625 0 "/></g></g></g><g fill="#ff0000" fill-opacity="1"><g transform="translate(55.022511, 121.493897)"><g><path d="M 27.203125 0 L 27.203125 -75.40625 L 0.640625 -75.40625 L 0.640625 -95 L 77.84375 -95 L 77.84375 -75.40625 L 51.296875 -75.40625 L 51.296875 0 Z M 27.203125 0 "/></g></g></g></g></g><g transform="matrix(1, 0, 0, 1, 170, 111)"><g clip-path="url(#afe2f18504)"><g fill="#040e40" fill-opacity="1"><g transform="translate(1.190868, 125.548507)"><g><path d="M 9.53125 0 L 9.53125 -19.328125 L 59.03125 -19.328125 L 63.546875 -23.84375 L 63.546875 -34.40625 L 59.03125 -38.921875 L 20.109375 -38.921875 L 5.796875 -53.359375 L 5.796875 -80.6875 L 20.109375 -95 L 82.234375 -95 L 82.234375 -75.65625 L 34.03125 -75.65625 L 29.515625 -71.140625 L 29.515625 -62.765625 L 34.03125 -58.265625 L 72.953125 -58.265625 L 87.265625 -43.953125 L 87.265625 -14.3125 L 72.953125 0 Z M 9.53125 0 "/></g></g></g><g fill="#040e40" fill-opacity="1"><g transform="translate(94.183104, 125.548507)"><g><path d="M 20.75 0 L 6.4375 -14.3125 L 6.4375 -52.96875 L 20.75 -67.28125 L 58.640625 -67.28125 L 72.953125 -52.96875 L 72.953125 -27.453125 L 30.546875 -27.453125 L 30.546875 -21.53125 L 35.1875 -17.015625 L 71.921875 -17.015625 L 71.921875 0 Z M 30.546875 -41.375 L 51.046875 -41.375 L 51.046875 -49.359375 L 46.40625 -53.875 L 35.1875 -53.875 L 30.546875 -49.359375 Z M 30.546875 -41.375 "/></g></g></g><g fill="#040e40" fill-opacity="1"><g transform="translate(174.166744, 125.548507)"><g><path d="M 8.375 0 L 8.375 -67.40625 L 32.484375 -67.40625 L 32.484375 -56.84375 L 43.953125 -67.28125 L 57.09375 -67.28125 L 57.09375 -45.75 L 37.765625 -45.75 L 32.484375 -40.984375 L 32.484375 0 Z M 8.375 0 "/></g></g></g><g fill="#040e40" fill-opacity="1"><g transform="translate(232.512332, 125.548507)"><g><path d="M 23.84375 0 L 0 -67.28125 L 27.71875 -67.28125 L 38.53125 -18.171875 L 43.171875 -18.171875 L 54 -67.28125 L 81.71875 -67.28125 L 57.875 0 Z M 23.84375 0 "/></g></g></g><g fill="#040e40" fill-opacity="1"><g transform="translate(314.170392, 125.548507)"><g><path d="M 8.375 -74.75 L 8.375 -92.796875 L 32.484375 -92.796875 L 32.484375 -74.75 Z M 8.375 0 L 8.375 -67.40625 L 32.484375 -67.40625 L 32.484375 0 Z M 8.375 0 "/></g></g></g><g fill="#040e40" fill-opacity="1"><g transform="translate(354.999421, 125.548507)"><g><path d="M 20.75 0 L 6.4375 -14.3125 L 6.4375 -52.96875 L 20.75 -67.28125 L 59.9375 -67.28125 L 73.46875 -54.90625 L 73.46875 -41.765625 L 49.359375 -41.765625 L 49.359375 -49.359375 L 44.859375 -53.875 L 35.0625 -53.875 L 30.546875 -49.359375 L 30.546875 -21.53125 L 35.0625 -17.015625 L 72.046875 -17.015625 L 72.046875 0 Z M 20.75 0 "/></g></g></g><g fill="#040e40" fill-opacity="1"><g transform="translate(433.566289, 125.548507)"><g><path d="M 20.75 0 L 6.4375 -14.3125 L 6.4375 -52.96875 L 20.75 -67.28125 L 58.640625 -67.28125 L 72.953125 -52.96875 L 72.953125 -27.453125 L 30.546875 -27.453125 L 30.546875 -21.53125 L 35.1875 -17.015625 L 71.921875 -17.015625 L 71.921875 0 Z M 30.546875 -41.375 L 51.046875 -41.375 L 51.046875 -49.359375 L 46.40625 -53.875 L 35.1875 -53.875 L 30.546875 -49.359375 Z M 30.546875 -41.375 "/></g></g></g><g fill="#040e40" fill-opacity="1"><g transform="translate(513.549929, 125.548507)"><g><path d="M 8.640625 0 L 8.640625 -16.625 L 44.859375 -16.625 L 48.46875 -20.109375 L 48.46875 -22.8125 L 44.859375 -26.421875 L 18.953125 -26.421875 L 5.15625 -38.921875 L 5.15625 -54.78125 L 18.8125 -67.28125 L 65.46875 -67.28125 L 65.46875 -50.78125 L 31.703125 -50.78125 L 28.484375 -47.171875 L 28.484375 -45.375 L 31.96875 -41.765625 L 58.265625 -41.765625 L 72.046875 -29.265625 L 72.046875 -12.625 L 58.390625 0 Z M 8.640625 0 "/></g></g></g></g></g><g transform="matrix(1, 0, 0, 1, 42, 254)"><g clip-path="url(#e74bec858c)"><g fill="#ff0000" fill-opacity="1"><g transform="translate(3.356228, 46.20988)"><g><path d="M 4.09375 0 L 4.09375 -34.625 L 26.40625 -34.625 L 26.40625 -30.6875 L 8.359375 -30.6875 L 8.359375 -19.5 L 24.203125 -19.5 L 24.203125 -15.59375 L 8.359375 -15.59375 L 8.359375 0 Z M 4.09375 0 "/></g></g></g><g fill="#ff0000" fill-opacity="1"><g transform="translate(38.883199, 46.20988)"><g><path d="M 3.859375 0 L 3.859375 -24.578125 L 7.984375 -24.578125 L 7.984375 -20.15625 L 12.265625 -24.578125 L 18.5625 -24.578125 L 18.5625 -20.4375 L 12.453125 -20.4375 L 7.984375 -15.828125 L 7.984375 0 Z M 3.859375 0 "/></g></g></g><g fill="#ff0000" fill-opacity="1"><g transform="translate(66.374909, 46.20988)"><g><path d="M 8.21875 0 L 3.28125 -4.9375 L 3.28125 -19.640625 L 8.21875 -24.578125 L 19.171875 -24.578125 L 24.109375 -19.640625 L 24.109375 -10.765625 L 7.421875 -10.765625 L 7.421875 -6.015625 L 10 -3.4375 L 23.6875 -3.4375 L 23.6875 0 Z M 7.421875 -14.046875 L 19.96875 -14.046875 L 19.96875 -18.703125 L 17.390625 -21.28125 L 10 -21.28125 L 7.421875 -18.703125 Z M 7.421875 -14.046875 "/></g></g></g><g fill="#ff0000" fill-opacity="1"><g transform="translate(102.183815, 46.20988)"><g><path d="M 8.21875 0 L 3.28125 -4.9375 L 3.28125 -19.640625 L 8.21875 -24.578125 L 19.171875 -24.578125 L 24.109375 -19.640625 L 24.109375 -10.765625 L 7.421875 -10.765625 L 7.421875 -6.015625 L 10 -3.4375 L 23.6875 -3.4375 L 23.6875 0 Z M 7.421875 -14.046875 L 19.96875 -14.046875 L 19.96875 -18.703125 L 17.390625 -21.28125 L 10 -21.28125 L 7.421875 -18.703125 Z M 7.421875 -14.046875 "/></g></g></g><g fill="#ff0000" fill-opacity="1"><g transform="translate(137.992721, 46.20988)"><g><path d="M 8.453125 0 L 4.140625 -4.28125 L 4.140625 -21.28125 L 1.546875 -21.28125 L 1.546875 -24.578125 L 4.234375 -24.578125 L 5.265625 -30.875 L 8.265625 -30.875 L 8.265625 -24.578125 L 13.484375 -24.578125 L 13.484375 -21.28125 L 8.265625 -21.28125 L 8.265625 -5.734375 L 10.484375 -3.4375 L 14.5625 -3.4375 L 14.5625 0 Z M 8.453125 0 "/></g></g></g><g fill="#ff0000" fill-opacity="1"><g transform="translate(162.148193, 46.20988)"><g><path d="M 8.21875 0 L 3.28125 -4.9375 L 3.28125 -19.640625 L 8.21875 -24.578125 L 19.875 -24.578125 L 24.8125 -19.640625 L 24.8125 -4.9375 L 19.875 0 Z M 10 -3.28125 L 18.09375 -3.28125 L 20.671875 -5.875 L 20.625 -18.703125 L 18.09375 -21.28125 L 10 -21.28125 L 7.421875 -18.703125 L 7.421875 -5.875 Z M 10 -3.28125 "/></g></g></g><g fill="#ff0000" fill-opacity="1"><g transform="translate(198.661912, 46.20988)"><g><path d="M 30.828125 0 L 25.1875 0 L 19.6875 -18.140625 L 14.1875 0 L 8.546875 0 L 0.609375 -24.578125 L 4.984375 -24.578125 L 10.8125 -4.140625 L 11.890625 -4.140625 L 17.390625 -24.578125 L 21.9375 -24.578125 L 27.4375 -4.140625 L 28.515625 -4.140625 L 34.390625 -24.578125 L 38.71875 -24.578125 Z M 30.828125 0 "/></g></g></g><g fill="#ff0000" fill-opacity="1"><g transform="translate(246.45315, 46.20988)"><g><path d="M 3.859375 0 L 3.859375 -24.578125 L 7.984375 -24.578125 L 7.984375 -20.15625 L 12.265625 -24.578125 L 21.328125 -24.578125 L 26.21875 -19.640625 L 26.21875 0 L 22.078125 0 L 22.078125 -18.609375 L 19.59375 -21.28125 L 13.34375 -21.28125 L 7.984375 -15.828125 L 7.984375 0 Z M 3.859375 0 "/></g></g></g><g fill="#ff0000" fill-opacity="1"><g transform="translate(284.705481, 46.20988)"><g/></g></g><g fill="#ff0000" fill-opacity="1"><g transform="translate(303.551094, 46.20988)"><g><path d="M 4.140625 0 L 4.140625 -3.953125 L 21.1875 -3.953125 L 23.734375 -6.53125 L 23.734375 -13.4375 L 21.1875 -16.015625 L 7.796875 -16.015625 L 2.90625 -20.90625 L 2.90625 -29.6875 L 7.796875 -34.625 L 26.21875 -34.625 L 26.21875 -30.6875 L 9.71875 -30.6875 L 7.140625 -28.09375 L 7.1875 -22.359375 L 9.71875 -19.78125 L 23.109375 -19.78125 L 28 -14.84375 L 28 -4.9375 L 23.109375 0 Z M 4.140625 0 "/></g></g></g><g fill="#ff0000" fill-opacity="1"><g transform="translate(342.884192, 46.20988)"><g><path d="M 3.859375 -27.25 L 3.859375 -32.796875 L 7.984375 -32.796875 L 7.984375 -27.25 Z M 3.859375 0 L 3.859375 -24.578125 L 7.984375 -24.578125 L 7.984375 0 Z M 3.859375 0 "/></g></g></g><g fill="#ff0000" fill-opacity="1"><g transform="translate(363.092507, 46.20988)"><g><path d="M 8.21875 0 L 3.28125 -4.9375 L 3.28125 -19.640625 L 8.21875 -24.578125 L 19.171875 -24.578125 L 24.109375 -19.640625 L 24.109375 -10.765625 L 7.421875 -10.765625 L 7.421875 -6.015625 L 10 -3.4375 L 23.6875 -3.4375 L 23.6875 0 Z M 7.421875 -14.046875 L 19.96875 -14.046875 L 19.96875 -18.703125 L 17.390625 -21.28125 L 10 -21.28125 L 7.421875 -18.703125 Z M 7.421875 -14.046875 "/></g></g></g><g fill="#ff0000" fill-opacity="1"><g transform="translate(398.901412, 46.20988)"><g><path d="M 3.859375 0 L 3.859375 -24.578125 L 7.984375 -24.578125 L 7.984375 -20.15625 L 12.265625 -24.578125 L 18.5625 -24.578125 L 18.5625 -20.4375 L 12.453125 -20.4375 L 7.984375 -15.828125 L 7.984375 0 Z M 3.859375 0 "/></g></g></g><g fill="#ff0000" fill-opacity="1"><g transform="translate(426.393122, 46.20988)"><g><path d="M 3.859375 0 L 3.859375 -24.578125 L 7.984375 -24.578125 L 7.984375 -20.15625 L 12.265625 -24.578125 L 18.5625 -24.578125 L 18.5625 -20.4375 L 12.453125 -20.4375 L 7.984375 -15.828125 L 7.984375 0 Z M 3.859375 0 "/></g></g></g><g fill="#ff0000" fill-opacity="1"><g transform="translate(453.884832, 46.20988)"><g><path d="M 6.53125 0 L 1.640625 -4.9375 L 1.640625 -10.53125 L 6.53125 -15.453125 L 19.03125 -15.453125 L 19.03125 -18.515625 L 16.484375 -21.09375 L 4.84375 -21.09375 L 4.84375 -24.578125 L 18.28125 -24.578125 L 23.15625 -19.640625 L 23.15625 0 L 19.03125 0 L 19.03125 -3.8125 L 15.21875 0 Z M 8.359375 -3.28125 L 14.1875 -3.28125 L 19.03125 -8.078125 L 19.03125 -12.21875 L 8.359375 -12.171875 L 5.78125 -9.625 L 5.78125 -5.875 Z M 8.359375 -3.28125 "/></g></g></g><g fill="#ff0000" fill-opacity="1"><g transform="translate(489.08286, 46.20988)"><g/></g></g><g fill="#ff0000" fill-opacity="1"><g transform="translate(507.928473, 46.20988)"><g><path d="M 4.09375 0 L 4.09375 -34.625 L 8.359375 -34.625 L 8.359375 -3.953125 L 25.796875 -3.953125 L 25.796875 0 Z M 4.09375 0 "/></g></g></g><g fill="#ff0000" fill-opacity="1"><g transform="translate(542.609601, 46.20988)"><g><path d="M 8.21875 0 L 3.28125 -4.9375 L 3.28125 -19.640625 L 8.21875 -24.578125 L 19.171875 -24.578125 L 24.109375 -19.640625 L 24.109375 -10.765625 L 7.421875 -10.765625 L 7.421875 -6.015625 L 10 -3.4375 L 23.6875 -3.4375 L 23.6875 0 Z M 7.421875 -14.046875 L 19.96875 -14.046875 L 19.96875 -18.703125 L 17.390625 -21.28125 L 10 -21.28125 L 7.421875 -18.703125 Z M 7.421875 -14.046875 "/></g></g></g><g fill="#ff0000" fill-opacity="1"><g transform="translate(578.418506, 46.20988)"><g><path d="M 8.21875 0 L 3.28125 -4.9375 L 3.28125 -19.640625 L 8.21875 -24.578125 L 19.875 -24.578125 L 24.8125 -19.640625 L 24.8125 -4.9375 L 19.875 0 Z M 10 -3.28125 L 18.09375 -3.28125 L 20.671875 -5.875 L 20.625 -18.703125 L 18.09375 -21.28125 L 10 -21.28125 L 7.421875 -18.703125 L 7.421875 -5.875 Z M 10 -3.28125 "/></g></g></g><g fill="#ff0000" fill-opacity="1"><g transform="translate(614.932225, 46.20988)"><g><path d="M 3.859375 0 L 3.859375 -24.578125 L 7.984375 -24.578125 L 7.984375 -20.15625 L 12.265625 -24.578125 L 21.328125 -24.578125 L 26.21875 -19.640625 L 26.21875 0 L 22.078125 0 L 22.078125 -18.609375 L 19.59375 -21.28125 L 13.34375 -21.28125 L 7.984375 -15.828125 L 7.984375 0 Z M 3.859375 0 "/></g></g></g><g fill="#ff0000" fill-opacity="1"><g transform="translate(653.184556, 46.20988)"><g><path d="M 8.21875 0 L 3.28125 -4.9375 L 3.28125 -19.640625 L 8.21875 -24.578125 L 19.171875 -24.578125 L 24.109375 -19.640625 L 24.109375 -10.765625 L 7.421875 -10.765625 L 7.421875 -6.015625 L 10 -3.4375 L 23.6875 -3.4375 L 23.6875 0 Z M 7.421875 -14.046875 L 19.96875 -14.046875 L 19.96875 -18.703125 L 17.390625 -21.28125 L 10 -21.28125 L 7.421875 -18.703125 Z M 7.421875 -14.046875 "/></g></g></g></g></g></svg>