<svg xmlns="http://www.w3.org/2000/svg" xmlns:xlink="http://www.w3.org/1999/xlink" width="500" zoomAndPan="magnify" viewBox="0 0 375 374.999991" height="500" preserveAspectRatio="xMidYMid meet" version="1.0"><defs><g/><clipPath id="383c24fb4b"><path d="M 79 115 L 182.8125 115 L 182.8125 281.175781 L 79 281.175781 Z M 79 115 " clip-rule="nonzero"/></clipPath><clipPath id="0a91f8d6cf"><path d="M 27.5625 93.675781 L 131 93.675781 L 131 260 L 27.5625 260 Z M 27.5625 93.675781 " clip-rule="nonzero"/></clipPath><clipPath id="7212c85fac"><path d="M 190.691406 248.632812 L 346.535156 248.632812 L 346.535156 253.730469 L 190.691406 253.730469 Z M 190.691406 248.632812 " clip-rule="nonzero"/></clipPath><clipPath id="ce3d24e159"><path d="M 189.933594 247.734375 L 347.433594 247.734375 L 347.433594 254.484375 L 189.933594 254.484375 Z M 189.933594 247.734375 " clip-rule="nonzero"/></clipPath><clipPath id="6e5f27af33"><rect x="0" width="154" y="0" height="119"/></clipPath><clipPath id="c3f981998f"><path d="M 188.394531 268.542969 L 344.238281 268.542969 L 344.238281 273.640625 L 188.394531 273.640625 Z M 188.394531 268.542969 " clip-rule="nonzero"/></clipPath><clipPath id="6b4be85516"><path d="M 187.636719 267.644531 L 345.136719 267.644531 L 345.136719 274.394531 L 187.636719 274.394531 Z M 187.636719 267.644531 " clip-rule="nonzero"/></clipPath></defs><g clip-path="url(#383c24fb4b)"><path fill="#ff0000" d="M 155.285156 229.5625 L 79.246094 185.660156 L 79.246094 221.617188 L 182.585938 281.285156 L 182.585938 115.125 L 155.285156 115.125 L 155.285156 229.5625 " fill-opacity="1" fill-rule="nonzero"/></g><g clip-path="url(#0a91f8d6cf)"><path fill="#0025cc" d="M 27.574219 93.660156 L 27.574219 259.816406 L 54.875 259.816406 L 54.875 145.382812 L 130.917969 189.285156 L 130.917969 153.324219 L 27.574219 93.660156 " fill-opacity="1" fill-rule="nonzero"/></g><g clip-path="url(#7212c85fac)"><path fill="#ff0000" d="M 347.433594 247.75 L 189.792969 247.75 L 189.792969 254.605469 L 347.433594 254.605469 Z M 347.433594 247.75 " fill-opacity="1" fill-rule="nonzero"/></g><g clip-path="url(#ce3d24e159)"><path stroke-linecap="butt" transform="matrix(0, 0.75, -0.75, 0, 347.434904, 247.733391)" fill="none" stroke-linejoin="miter" d="M 0.00131209 0.00174711 L 0.00131209 210.189261 L 9.188813 210.189261 L 9.188813 0.00174711 L 0.00131209 0.00174711 " stroke="#0025cc" stroke-width="54" stroke-opacity="1" stroke-miterlimit="4"/></g><g transform="matrix(1, 0, 0, 1, 189, 119)"><g clip-path="url(#6e5f27af33)"><g fill="#0025cc" fill-opacity="1"><g transform="translate(0.796442, 94.399444)"><g><path d="M 39.375 -75.921875 C 48.914062 -75.921875 56.757812 -73.988281 62.90625 -70.125 C 69.050781 -66.257812 72.195312 -60.53125 72.34375 -52.9375 L 72.34375 -51.625 L 49.890625 -51.625 L 49.890625 -52.0625 C 49.890625 -54.226562 49.09375 -56.035156 47.5 -57.484375 C 45.914062 -58.929688 43.492188 -59.65625 40.234375 -59.65625 C 37.054688 -59.65625 34.617188 -59.1875 32.921875 -58.25 C 31.222656 -57.3125 30.375 -56.15625 30.375 -54.78125 C 30.375 -52.820312 31.53125 -51.375 33.84375 -50.4375 C 36.15625 -49.5 39.878906 -48.523438 45.015625 -47.515625 C 51.015625 -46.285156 55.945312 -45 59.8125 -43.65625 C 63.6875 -42.320312 67.066406 -40.132812 69.953125 -37.09375 C 72.847656 -34.0625 74.332031 -29.941406 74.40625 -24.734375 C 74.40625 -15.910156 71.421875 -9.363281 65.453125 -5.09375 C 59.492188 -0.832031 51.523438 1.296875 41.546875 1.296875 C 29.898438 1.296875 20.84375 -0.648438 14.375 -4.546875 C 7.90625 -8.453125 4.671875 -15.359375 4.671875 -25.265625 L 27.328125 -25.265625 C 27.328125 -21.515625 28.300781 -19.003906 30.25 -17.734375 C 32.207031 -16.472656 35.25 -15.84375 39.375 -15.84375 C 42.414062 -15.84375 44.925781 -16.164062 46.90625 -16.8125 C 48.894531 -17.457031 49.890625 -18.796875 49.890625 -20.828125 C 49.890625 -22.628906 48.785156 -23.984375 46.578125 -24.890625 C 44.378906 -25.796875 40.785156 -26.753906 35.796875 -27.765625 C 29.722656 -29.066406 24.695312 -30.421875 20.71875 -31.828125 C 16.738281 -33.242188 13.265625 -35.578125 10.296875 -38.828125 C 7.335938 -42.085938 5.859375 -46.5 5.859375 -52.0625 C 5.859375 -60.238281 9.019531 -66.257812 15.34375 -70.125 C 21.675781 -73.988281 29.6875 -75.921875 39.375 -75.921875 Z M 39.375 -75.921875 "/></g></g></g><g fill="#0025cc" fill-opacity="1"><g transform="translate(79.110693, 94.399444)"><g><path d="M 8.03125 -74.625 L 32 -74.625 L 32 -19.09375 L 70.28125 -19.09375 L 70.28125 0 L 8.03125 0 Z M 8.03125 -74.625 "/></g></g></g></g></g><g clip-path="url(#6b4be85516)"><path stroke-linecap="butt" transform="matrix(0, 0.75, -0.75, 0, 345.138469, 267.644397)" fill="none" stroke-linejoin="miter" d="M 0.000179234 0.00233371 L 0.000179234 210.189848 L 9.18768 210.189848 L 9.18768 0.00233371 L 0.000179234 0.00233371 " stroke="#ff0000" stroke-width="60" stroke-opacity="1" stroke-miterlimit="4"/></g></svg>