<svg xmlns="http://www.w3.org/2000/svg" viewBox="0 0 32 32" width="32" height="32">
  <defs>
    <linearGradient id="primaryGradient32" x1="0%" y1="0%" x2="100%" y2="100%">
      <stop offset="0%" style="stop-color:#040e40;stop-opacity:1" />
      <stop offset="50%" style="stop-color:#1c1891;stop-opacity:1" />
      <stop offset="100%" style="stop-color:#040e40;stop-opacity:1" />
    </linearGradient>
    <linearGradient id="accentGradient32" x1="0%" y1="0%" x2="100%" y2="100%">
      <stop offset="0%" style="stop-color:#ff0000;stop-opacity:1" />
      <stop offset="100%" style="stop-color:#dc2626;stop-opacity:1" />
    </linearGradient>
    <filter id="glow32" x="-50%" y="-50%" width="200%" height="200%">
      <feGaussianBlur stdDeviation="1" result="coloredBlur"/>
      <feMerge> 
        <feMergeNode in="coloredBlur"/>
        <feMergeNode in="SourceGraphic"/>
      </feMerge>
    </filter>
  </defs>
  
  <!-- Modern circular background -->
  <circle cx="16" cy="16" r="15" fill="url(#primaryGradient32)"/>
  
  <!-- Inner highlight -->
  <circle cx="16" cy="16" r="14" fill="none" stroke="rgba(255,255,255,0.1)" stroke-width="1"/>
  
  <!-- Central tech icon -->
  <g transform="translate(16,16)">
    <!-- Main gear shape -->
    <path d="M-6,-2 L-6,-6 L-2,-6 L-2,-8 L2,-8 L2,-6 L6,-6 L6,-2 L8,-2 L8,2 L6,2 L6,6 L2,6 L2,8 L-2,8 L-2,6 L-6,6 L-6,2 L-8,2 L-8,-2 Z" 
          fill="rgba(255,255,255,0.9)" 
          stroke="rgba(255,255,255,0.3)" 
          stroke-width="0.5"/>
    
    <!-- Central circle -->
    <circle cx="0" cy="0" r="3.5" fill="url(#accentGradient32)" filter="url(#glow32)"/>
    
    <!-- Tech details -->
    <rect x="-1" y="-4" width="2" height="1" fill="rgba(255,255,255,0.6)" rx="0.5"/>
    <rect x="-1" y="3" width="2" height="1" fill="rgba(255,255,255,0.6)" rx="0.5"/>
    <rect x="-4" y="-1" width="1" height="2" fill="rgba(255,255,255,0.6)" rx="0.5"/>
    <rect x="3" y="-1" width="1" height="2" fill="rgba(255,255,255,0.6)" rx="0.5"/>
    
    <!-- Central dot -->
    <circle cx="0" cy="0" r="1" fill="rgba(255,255,255,0.9)"/>
  </g>
  
  <!-- Outer glow -->
  <circle cx="16" cy="16" r="15.5" fill="none" stroke="url(#accentGradient32)" stroke-width="0.5" opacity="0.3"/>
</svg>
